<?xml version="1.0" encoding="UTF-8" standalone="no"?>
<!-- Created with Inkscape (http://www.inkscape.org/) -->

<svg
   xmlns:dc="http://purl.org/dc/elements/1.1/"
   xmlns:cc="http://creativecommons.org/ns#"
   xmlns:rdf="http://www.w3.org/1999/02/22-rdf-syntax-ns#"
   xmlns:svg="http://www.w3.org/2000/svg"
   xmlns="http://www.w3.org/2000/svg"
   xmlns:sodipodi="http://sodipodi.sourceforge.net/DTD/sodipodi-0.dtd"
   xmlns:inkscape="http://www.inkscape.org/namespaces/inkscape"
   width="1254.88"
   height="468.70999"
   id="svg2"
   version="1.1"
   inkscape:version="0.48.0 r9654"
   sodipodi:docname="logo.svg"
   inkscape:export-filename="/home/jonathan/Desktop/buzzlang.png"
   inkscape:export-xdpi="600"
   inkscape:export-ydpi="600">
  <defs
     id="defs4">
    <inkscape:path-effect
       pattern-nodetypes="cccsc"
       fuse_tolerance="0"
       vertical_pattern="false"
       prop_units="false"
       tang_offset="0"
       normal_offset="0"
       spacing="0"
       scale_y_rel="false"
       prop_scale="1"
       copytype="single_stretched"
       pattern="m 370.58597,231.05325 c 0,0 -34.09539,-8.70804 -81.06849,-7.90808 -37.93814,0.64609 -199.893679,7.90808 -199.893679,7.90808 0,0 161.954749,-0.74362 199.893679,-0.74362 22.01422,0 81.06849,0.74362 81.06849,0.74362 z"
       is_visible="true"
       id="path-effect3951"
       effect="skeletal" />
    <inkscape:path-effect
       effect="skeletal"
       id="path-effect3919"
       is_visible="true"
       pattern="m 355.45748,224.43454 c 0,0 -34.09539,-8.70804 -81.06849,-7.90808 -37.93814,0.64609 -199.893676,7.90808 -199.893676,7.90808 0,0 161.954746,-0.74362 199.893676,-0.74362 22.01422,0 81.06849,0.74362 81.06849,0.74362 z"
       copytype="single_stretched"
       prop_scale="1"
       scale_y_rel="false"
       spacing="0"
       normal_offset="0"
       tang_offset="0"
       prop_units="false"
       vertical_pattern="false"
       fuse_tolerance="0"
       pattern-nodetypes="cccsc" />
    <inkscape:path-effect
       effect="skeletal"
       id="path-effect3917"
       is_visible="true"
       pattern="m 385.24267,227.18111 c 0,0 -68.36614,-7.90808 -210.60615,-7.90808 -37.93814,0.64609 -70.35601,7.90808 -70.35601,7.90808 0,0 32.41787,10.35737 70.35601,10.60274 127.8879,0.82714 210.60615,-10.60274 210.60615,-10.60274 z"
       copytype="single_stretched"
       prop_scale="1"
       scale_y_rel="false"
       spacing="0"
       normal_offset="0"
       tang_offset="0"
       prop_units="false"
       vertical_pattern="false"
       fuse_tolerance="0"
       pattern-nodetypes="ccccc" />
    <inkscape:path-effect
       effect="skeletal"
       id="path-effect3906"
       is_visible="true"
       pattern="m 429.18929,235.66848 c -54.10492,-0.98868 -98.01281,-8.08769 -155.06699,-9.68473 2.27233,4.38235 -1.70323,11.54323 -0.30313,17.9723 1.31866,6.05508 3.99839,7.37395 6.13853,11.50137 47.07669,-1.53127 110.32232,-2.61532 160.57795,-6.55152 l -11.34636,-13.23742 z"
       copytype="single_stretched"
       prop_scale="1"
       scale_y_rel="false"
       spacing="0"
       normal_offset="0"
       tang_offset="0"
       prop_units="false"
       vertical_pattern="false"
       fuse_tolerance="0"
       pattern-nodetypes="ccsccc" />
    <inkscape:path-effect
       effect="skeletal"
       id="path-effect3832"
       is_visible="true"
       pattern="m 447.24124,216.94793 c -54.10492,-0.98868 -98.01281,-8.08769 -155.06699,-9.68473 4.41247,8.50978 5.43448,24.97545 9.84695,33.48522 47.07669,-1.53127 106.31077,-6.62687 156.5664,-10.56307 l -2.26013,-2.68115 -148.60461,6.80184 -1.74229,-8.6828 143.95098,-3.73046 -144.68805,1.74256 -2.70419,-9.19432 146.42631,4.46499 -1.72438,-1.95808 z"
       copytype="single_stretched"
       prop_scale="1"
       scale_y_rel="false"
       spacing="0"
       normal_offset="0"
       tang_offset="0"
       prop_units="false"
       vertical_pattern="false"
       fuse_tolerance="0"
       pattern-nodetypes="cccccccccccc" />
    <inkscape:path-effect
       pattern-nodetypes="ccccc"
       fuse_tolerance="0"
       vertical_pattern="false"
       prop_units="false"
       tang_offset="0"
       normal_offset="0"
       spacing="0"
       scale_y_rel="false"
       prop_scale="1"
       copytype="single_stretched"
       pattern="m 373.89631,235.69089 c 0,0 -68.36614,-7.90808 -210.60615,-7.90808 -37.93814,0.64609 -70.356015,7.90808 -70.356015,7.90808 0,0 32.417875,10.35737 70.356015,10.60274 127.8879,0.82714 210.60615,-10.60274 210.60615,-10.60274 z"
       is_visible="true"
       id="path-effect3764"
       effect="skeletal" />
    <inkscape:path-effect
       effect="skeletal"
       id="path-effect3732"
       is_visible="true"
       pattern="m 471.79579,304.92427 c 0,0 -137.23269,-13.34933 -175.17083,-12.70324 -37.93814,0.64609 -105.79134,15.97868 -105.79134,15.97868 0,0 92.59106,10.5196 130.5292,10.76497 37.93814,0.24537 150.43297,-14.04041 150.43297,-14.04041 z"
       copytype="single_stretched"
       prop_scale="1"
       scale_y_rel="false"
       spacing="0"
       normal_offset="0"
       tang_offset="0"
       prop_units="false"
       vertical_pattern="false"
       fuse_tolerance="0"
       pattern-nodetypes="czczc" />
    <inkscape:path-effect
       effect="skeletal"
       id="path-effect3728"
       is_visible="true"
       pattern="M 291.33707,331.45254 C 251.89021,313.49742 116.16624,318.7493 116.16624,318.7493 l 8.02309,26.74365 c 0,0 130.60513,5.04111 167.14774,-14.04041 z"
       copytype="single_stretched"
       prop_scale="1"
       scale_y_rel="false"
       spacing="0"
       normal_offset="0"
       tang_offset="0"
       prop_units="false"
       vertical_pattern="false"
       fuse_tolerance="0"
       pattern-nodetypes="cccc" />
    <inkscape:path-effect
       pattern-nodetypes="cccc"
       fuse_tolerance="0"
       vertical_pattern="false"
       prop_units="false"
       tang_offset="0"
       normal_offset="0"
       spacing="0"
       scale_y_rel="false"
       prop_scale="1"
       copytype="single_stretched"
       pattern="M 291.33707,260.58191 C 251.89021,242.62679 116.16624,247.87867 116.16624,247.87867 l 8.02309,26.74365 c 0,0 130.60513,5.04111 167.14774,-14.04041 z"
       is_visible="true"
       id="path-effect3689"
       effect="skeletal" />
    <inkscape:path-effect
       effect="skeletal"
       id="path-effect3685"
       is_visible="true"
       pattern="M 175.17083,-3.0676291 C 135.72397,-21.022749 0,-15.770869 0,-15.770869 l 8.02309,26.74365 c 0,0 130.60513,5.04111 167.14774,-14.0404101 z"
       copytype="single_stretched"
       prop_scale="1"
       scale_y_rel="false"
       spacing="0"
       normal_offset="0"
       tang_offset="0"
       prop_units="false"
       vertical_pattern="false"
       fuse_tolerance="0"
       pattern-nodetypes="cccc" />
    <inkscape:path-effect
       pattern-nodetypes="cccc"
       fuse_tolerance="0"
       vertical_pattern="false"
       prop_units="false"
       tang_offset="0"
       normal_offset="0"
       spacing="0"
       scale_y_rel="false"
       prop_scale="1"
       copytype="single_stretched"
       pattern="M 175.17083,7.547422 C 135.72397,-10.407698 0,-5.1558183 0,-5.1558183 L 8.02309,21.587832 c 0,0 130.60513,5.04111 167.14774,-14.04041 z"
       is_visible="true"
       id="path-effect3681"
       effect="skeletal" />
    <inkscape:path-effect
       effect="skeletal"
       id="path-effect3670"
       is_visible="true"
       pattern="M 175.17083,13.418673 C 135.72397,-4.5364473 0,0.71543267 0,0.71543267 L 8.02309,27.459083 c 0,0 130.60513,5.04111 167.14774,-14.04041 z"
       copytype="single_stretched"
       prop_scale="1"
       scale_y_rel="false"
       spacing="0"
       normal_offset="0"
       tang_offset="0"
       prop_units="false"
       vertical_pattern="false"
       fuse_tolerance="0"
       pattern-nodetypes="cccc" />
    <inkscape:path-effect
       pattern-nodetypes="ccc"
       fuse_tolerance="0"
       vertical_pattern="false"
       prop_units="false"
       tang_offset="0"
       normal_offset="0"
       spacing="0"
       scale_y_rel="false"
       prop_scale="1"
       copytype="single_stretched"
       pattern="m 87.416832,432.40966 c 77.957098,10.46908 161.756618,10.18198 250.053008,-2.67437 -89.84779,-11.51217 -167.79462,-9.96413 -250.053008,2.67437 z"
       is_visible="true"
       id="path-effect3653"
       effect="skeletal" />
    <inkscape:path-effect
       effect="skeletal"
       id="path-effect3642"
       is_visible="true"
       pattern="M -26.743638,16.49731 C 103.36356,25.629208 132.33862,19.99338 223.30937,13.82294 132.1244,11.671043 103.76038,8.9890963 -26.743638,16.49731 z"
       copytype="single_stretched"
       prop_scale="1"
       scale_y_rel="false"
       spacing="0"
       normal_offset="0"
       tang_offset="0"
       prop_units="false"
       vertical_pattern="false"
       fuse_tolerance="0"
       pattern-nodetypes="ccc" />
    <inkscape:path-effect
       pattern-nodetypes="ccc"
       fuse_tolerance="0"
       vertical_pattern="false"
       prop_units="false"
       tang_offset="0"
       normal_offset="0"
       spacing="0"
       scale_y_rel="false"
       prop_scale="1"
       copytype="single_stretched"
       pattern="m 142.24129,357.52758 c 77.9571,10.46908 161.75662,10.18198 250.05301,-2.67437 -89.84779,-11.51217 -167.79462,-9.96413 -250.05301,2.67437 z"
       is_visible="true"
       id="path-effect3621"
       effect="skeletal" />
    <inkscape:path-effect
       effect="skeletal"
       id="path-effect3610"
       is_visible="true"
       pattern="m 87.416832,123.52063 c 77.957098,10.46908 161.756618,10.18198 250.053008,-2.67437 -89.84779,-11.51217 -167.79462,-9.96413 -250.053008,2.67437 z"
       copytype="single_stretched"
       prop_scale="1"
       scale_y_rel="false"
       spacing="0"
       normal_offset="0"
       tang_offset="0"
       prop_units="false"
       vertical_pattern="false"
       fuse_tolerance="0"
       pattern-nodetypes="ccc" />
    <inkscape:perspective
       sodipodi:type="inkscape:persp3d"
       inkscape:vp_x="0 : 526.18109 : 1"
       inkscape:vp_y="0 : 1000 : 0"
       inkscape:vp_z="744.09448 : 526.18109 : 1"
       inkscape:persp3d-origin="372.04724 : 350.78739 : 1"
       id="perspective10" />
    <inkscape:perspective
       id="perspective3874"
       inkscape:persp3d-origin="0.5 : 0.33333333 : 1"
       inkscape:vp_z="1 : 0.5 : 1"
       inkscape:vp_y="0 : 1000 : 0"
       inkscape:vp_x="0 : 0.5 : 1"
       sodipodi:type="inkscape:persp3d" />
    <inkscape:perspective
       id="perspective4113"
       inkscape:persp3d-origin="0.5 : 0.33333333 : 1"
       inkscape:vp_z="1 : 0.5 : 1"
       inkscape:vp_y="0 : 1000 : 0"
       inkscape:vp_x="0 : 0.5 : 1"
       sodipodi:type="inkscape:persp3d" />
  </defs>
  <sodipodi:namedview
     id="base"
     pagecolor="#ffffff"
     bordercolor="#666666"
     borderopacity="1.0"
     inkscape:pageopacity="1"
     inkscape:pageshadow="2"
     inkscape:zoom="0.3739207"
     inkscape:cx="589.82201"
     inkscape:cy="192.32106"
     inkscape:document-units="px"
     inkscape:current-layer="layer1"
     showgrid="false"
     inkscape:window-width="1022"
     inkscape:window-height="598"
     inkscape:window-x="0"
     inkscape:window-y="424"
     inkscape:window-maximized="0"
     fit-margin-top="0"
     fit-margin-left="0"
     fit-margin-right="0"
     fit-margin-bottom="0" />
  <metadata
     id="metadata7">
    <rdf:RDF>
      <cc:Work
         rdf:about="">
        <dc:format>image/svg+xml</dc:format>
        <dc:type
           rdf:resource="http://purl.org/dc/dcmitype/StillImage" />
        <dc:title />
      </cc:Work>
    </rdf:RDF>
  </metadata>
  <g
     inkscape:label="Layer 1"
     inkscape:groupmode="layer"
     id="layer1"
     transform="translate(-161.72316,-245.93535)">
    <g
       id="g3019"
       transform="matrix(0.9829696,0,0,0.9829696,33.09927,-6.0707462)">
      <g
         transform="matrix(1.0223581,0,0,1.0223581,38.784521,-77.428023)"
         id="g4031">
        <path
           style="fill:#a40000;fill-opacity:1;stroke:none"
           d="m 183.91522,420.40714 c 0,0 0.18432,-0.67596 0.69997,-1.71722 0.51565,-1.04126 1.41189,-2.4223 2.8171,-3.62183 0.71036,-0.60044 1.51635,-1.16795 2.41117,-1.6781 0.89481,-0.51015 1.87915,-0.96243 2.92707,-1.37211 2.00268,-0.78303 4.23812,-1.44905 6.70034,-2.01709 2.46222,-0.56804 5.15719,-1.03996 8.04464,-1.60006 0,0 0,0 0,0 4.56067,-0.85649 9.50669,-1.78514 14.82732,-2.93817 2.7,-0.58512 6.736,-1.45589 11.74389,-2.25952 5.0079,-0.80362 10.99264,-1.53001 17.44579,-2.03678 5.85347,-0.45212 12.10287,-0.70696 18.37027,-0.59286 6.2674,0.1141 12.55068,0.60512 18.46481,1.47968 2.49801,0.35939 4.97413,0.75682 7.35422,1.25278 2.38008,0.49595 4.66378,1.09099 6.79519,1.80359 2.13141,0.71259 4.11047,1.54272 5.90257,2.46272 1.7921,0.91999 3.39748,1.92921 4.80146,2.95885 1.33225,0.92188 2.44861,2.03555 3.29371,3.16828 0.84511,1.13273 1.4245,2.28327 1.80813,3.29309 0.38363,1.00983 0.57784,1.87749 0.6873,2.47912 0.10946,0.60163 0.13961,0.93563 0.13961,0.93563 0,0 -0.0133,-0.33279 -0.0922,-0.93976 -0.0789,-0.60697 -0.22862,-1.4876 -0.56074,-2.53173 -0.33211,-1.04412 -0.85276,-2.25154 -1.64468,-3.46543 -0.79191,-1.21389 -1.8605,-2.43406 -3.17162,-3.45946 -2.71128,-2.28649 -6.29455,-4.5459 -10.55314,-6.34448 -4.2586,-1.79857 -9.18936,-3.13375 -14.15615,-4.18594 -5.93285,-1.33716 -12.28976,-2.31984 -18.66732,-2.91117 -6.37756,-0.59133 -12.77194,-0.79836 -18.77142,-0.75237 -6.59417,0.0355 -12.79558,0.36262 -18.04418,0.87653 -5.24859,0.51392 -9.54539,1.20324 -12.42287,1.72714 -1.87585,0.34154 -4.27779,0.80132 -6.96312,1.41808 -2.68533,0.61676 -5.6534,1.39361 -8.66323,2.33297 -2.60759,0.79736 -5.31112,1.75884 -7.86397,2.93927 -2.55285,1.18043 -4.94897,2.5862 -7.00501,4.11503 0,0 0,0 0,0 -1.91799,1.41247 -3.546,3.16089 -4.68429,4.89292 -1.0665,1.61996 -1.55063,3.25056 -1.76669,4.41691 -0.21606,1.16635 -0.20393,1.87149 -0.20393,1.87149 z"
           id="path3915"
           sodipodi:nodetypes="csss"
           inkscape:path-effect="#path-effect3919"
           inkscape:original-d="m 315.19574,420.40714 c 0,-2.63725 -1.44321,-5.16212 -4.08073,-7.49169 -9.08379,-8.02313 -32.33399,-13.72939 -59.5825,-13.72939 -35.16024,0 -63.66325,9.501 -63.66325,21.22108"
           inkscape:connector-curvature="0" />
        <path
           style="fill:#a40000;stroke:none"
           d="m 324.0596,425.43516 c 18.79066,-27.90209 39.36373,-47.1833 59.64747,-76.31027 -4.45937,-1.14602 -9.19462,-7.05872 -15.09505,-9.75595 -5.55718,-2.54033 -7.56156,-1.83647 -11.76151,-2.91583 -14.32771,25.5546 -34.39922,59.36655 -47.74848,87.87573 l 14.95757,1.10632 z"
           id="path3815"
           inkscape:path-effect="#path-effect3906"
           inkscape:original-d="m 371.44947,340.93531 -55.42673,87.76424"
           sodipodi:nodetypes="cc"
           inkscape:connector-curvature="0" />
        <path
           style="fill:#204a87;fill-opacity:1;stroke:none"
           d="m 401.49446,575.91222 c 4.18805,3.33709 8.03502,7.05416 10.59673,11.37029 1e-5,10e-6 1e-5,10e-6 1e-5,2e-5 1.97295,3.35932 3.18028,7.0961 2.83467,10.49913 0,10e-6 0,10e-6 0,2e-5 -0.19611,2.91322 -1.47872,5.78188 -3.24441,8.29841 -2.17671,3.10322 -5.24344,5.69195 -8.61229,8.08242 0,10e-6 -10e-6,10e-6 -10e-6,2e-5 -9.44224,6.65829 -20.81074,10.60817 -32.61537,14.09233 -15.72759,4.54237 -32.10459,7.36154 -48.81291,9.3698 -19.63598,2.34535 -39.61402,3.39601 -59.81382,3.42653 -19.8528,0.0228 -39.84147,-0.934 -59.83424,-3.28174 -16.47747,-1.94717 -32.88188,-4.70779 -48.85873,-9.31592 -11.68917,-3.4432 -23.10393,-7.37571 -32.66759,-14.14067 -1e-5,0 -1e-5,-10e-6 -2e-5,-10e-6 -3.36382,-2.39379 -6.44399,-5.00216 -8.6364,-8.14523 -1.7676,-2.53369 -3.05335,-5.43221 -3.24108,-8.38592 0,-10e-6 0,-10e-6 0,-2e-5 -0.27453,-3.00362 0.60929,-6.27315 2.16934,-9.27647 1.92583,-3.68756 4.90631,-6.98619 8.24515,-9.98813 9.35166,-8.384 21.20386,-14.27184 33.26386,-19.28852 -12.75816,3.12732 -25.48082,7.33979 -36.63574,14.92362 -4.05938,2.74799 -7.93959,6.14717 -11.01683,10.51066 0,0 -1e-5,1e-5 -1e-5,2e-5 -2.5978,3.68107 -4.34133,8.17504 -4.60167,13.11879 0,10e-6 0,2e-5 0,3e-5 -0.132925,4.87297 1.18916,9.54413 3.46851,13.51096 2.70167,4.72248 6.28883,8.61039 10.07765,11.78474 10.57229,8.92856 22.99431,14.62747 35.04983,18.95116 16.74703,6.11563 33.95634,9.98489 51.01133,12.56783 20.7835,3.16264 41.60135,4.41965 62.20664,4.17343 20.84245,-0.2419 41.59725,-2.02622 62.00143,-5.62889 17.09443,-3.00837 34.10226,-7.29279 50.35884,-13.68545 11.90491,-4.63126 23.90154,-10.5009 33.65435,-19.23711 1e-5,0 2e-5,-10e-6 2e-5,-10e-6 3.49994,-3.12326 6.71181,-6.77096 8.94307,-11.00535 1e-5,-10e-6 1e-5,-2e-5 1e-5,-3e-5 1.85974,-3.52142 2.87845,-7.51486 2.60282,-11.43128 -0.34961,-4.55535 -2.42229,-8.67088 -5.20248,-11.9842 -3.49913,-4.16939 -7.98486,-7.27021 -12.69066,-9.88526 0,0 0,0 0,0 z"
           id="path2820"
           sodipodi:nodetypes="ccssc"
           inkscape:path-effect="#path-effect3610"
           inkscape:original-d="m 402.3377,574.66107 c 10.34102,6.9695 16.15259,14.81882 16.15259,23.12061 0,28.8409 -70.14052,52.22107 -156.66323,52.22107 -86.52273,0 -156.66324,-23.38017 -156.66324,-52.22107 0,-14.68603 18.18694,-27.95612 47.46289,-37.44432"
           inkscape:connector-curvature="0" />
        <path
           style="fill:#204a87;stroke:none"
           d="m 162.38295,655.88186 c 15.79287,6.38294 30.95748,10.84971 45.27336,13.82246 14.31587,2.97274 27.79047,4.45714 40.40971,4.83515 14.50273,0.44411 27.84972,0.25088 40.28705,-0.49239 12.43733,-0.74327 23.96843,-2.03164 34.89193,-3.80615 10.9235,-1.77451 21.24182,-4.03253 31.2633,-6.79768 10.02149,-2.76515 19.74836,-6.03486 29.46473,-9.9524 7.18888,-2.88991 14.17068,-6.68476 20.49051,-11.71352 5.3522,-4.269 10.20422,-9.22896 15.51986,-14.10676 2.56089,-2.35051 4.70363,-5.2188 6.07404,-8.45115 1.26478,-2.96629 1.89382,-6.21882 2.14788,-9.55908 0.2787,-3.66167 0.16153,-7.41314 -0.0998,-11.29855 -0.26137,-3.88542 -0.66861,-7.90478 -0.88685,-12.10897 -0.0833,4.20608 0.0207,8.25308 -0.017,12.12008 -0.0378,3.86699 -0.21566,7.55409 -0.77967,11.04742 -0.51389,3.16234 -1.34581,6.1236 -2.69935,8.63453 -1.43516,2.73198 -3.53862,5.0652 -5.92973,6.92215 -5.79419,4.50553 -10.97512,9.00359 -16.30788,12.5832 -6.19263,4.18557 -12.9066,7.16601 -19.76044,9.39401 -9.71154,3.15899 -19.33687,5.76455 -29.19408,8.01986 -9.85721,2.25531 -19.94802,4.1577 -30.62169,5.78815 -10.67368,1.63045 -21.93256,2.98663 -34.12813,4.06292 -12.19557,1.07628 -25.33235,1.86882 -39.71459,2.32944 -12.22071,0.39155 -25.41193,-0.0833 -39.68383,-1.81304 -14.2719,-1.72973 -29.63381,-4.71667 -45.99924,-9.45968 z"
           id="path3625"
           sodipodi:nodetypes="csssc"
           inkscape:path-effect="#path-effect3642"
           inkscape:original-d="m 162.40963,655.80346 c 25.98211,8.84269 54.96423,14.733 85.65637,14.733 52.04387,0 99.17087,-7.05987 135.0916,-19.41613 17.96035,-6.17813 24.71754,-13.55575 36.84875,-23.42155 12.13122,-9.8658 9.80382,-23.972 9.80382,-41.44596"
           inkscape:connector-curvature="0" />
        <path
           sodipodi:nodetypes="csss"
           id="path3651"
           d="m 177.27265,553.32159 c -1.84727,0.58117 -3.89883,1.56263 -5.76305,3.27669 -1.86423,1.71405 -3.54313,4.16472 -4.34655,7.71599 -0.4554,2.99886 -0.0541,6.24644 1.26096,9.16208 1.38661,3.12961 3.41954,5.97354 5.70783,8.26949 10e-6,0 10e-6,10e-6 10e-6,10e-6 2.7754,2.83612 5.99753,5.3865 9.46796,7.60273 3.47044,2.21623 7.18769,4.09829 10.8997,5.67757 9.20789,4.04947 19.40915,6.96853 29.6539,8.9307 12.03101,2.32427 24.41539,3.45193 36.2,3.65739 0,0 1e-5,0 1e-5,0 7.47692,0.139 14.78307,-0.0858 21.68954,-0.61709 6.90646,-0.53132 13.41239,-1.36866 19.31047,-2.37859 4.87257,-0.81462 9.40644,-1.77852 13.4329,-2.8058 4.02646,-1.02729 7.54599,-2.11499 10.43494,-3.11022 2.88895,-0.99523 5.1489,-1.89364 6.68522,-2.53111 1.53632,-0.63746 2.3509,-1.00932 2.3509,-1.00932 -6.3162,-7.05391 -11.91572,-14.50893 -16.95477,-22.24943 0,0 -1.87932,0.55108 -5.35935,1.35584 -3.48003,0.80475 -8.58967,1.81376 -15.06889,2.816 -4.91546,0.73731 -10.54313,1.4118 -16.69609,1.91835 -6.15297,0.50656 -12.83141,0.8445 -19.82487,0.99121 0,0 -1e-5,0 -1e-5,0 -10.56951,0.20852 -21.71293,-0.0393 -32.6929,-0.91239 -9.31245,-0.76094 -18.32403,-1.84354 -26.6591,-3.56123 -3.4435,-0.77253 -6.68319,-1.48259 -9.65433,-2.317 -2.97114,-0.83441 -5.67377,-1.79475 -8.11514,-3.00465 0,0 -1e-5,0 -1e-5,0 -1.90813,-0.95568 -3.5752,-1.79451 -4.821,-2.85332 -1.06935,-0.87422 -2.04917,-1.87959 -2.56399,-3.03123 -0.8449,-1.40192 -0.80381,-3.30204 -0.42645,-5.25444 0.37737,-1.95239 1.09547,-3.95493 1.85216,-5.73823 z"
           style="fill:#204a87;fill-opacity:1;stroke:none"
           inkscape:path-effect="#path-effect3670"
           inkscape:original-d="m 329.18441,582.851 c -16.22173,6.68441 -41.02899,10.95842 -68.831,10.95842 -48.86918,0 -88.48547,-13.20544 -88.48547,-29.49516 0,-3.7103 2.05525,-7.26059 5.80695,-10.53127"
           inkscape:connector-curvature="0" />
        <path
           inkscape:original-d="m 334.93435,531.61512 c -17.4075,7.17302 -44.02809,11.75944 -73.86235,11.75944 -52.44139,0 -94.95352,-14.17071 -94.95352,-31.65117 0,-3.98151 2.20548,-7.79132 6.23141,-11.30108"
           inkscape:path-effect="#path-effect3681"
           style="fill:#204a87;fill-opacity:1;stroke:none"
           d="m 171.94765,499.96091 c -1.94274,0.6644 -4.09563,1.75036 -6.04205,3.59258 -1.94642,1.84222 -3.68859,4.44482 -4.49201,8.16991 -0.4554,3.14503 -0.006,6.54447 1.39237,9.59659 1.4795,3.28093 3.6451,6.259 6.08472,8.6742 0,0 0,0 0,10e-6 2.9639,2.98466 6.40095,5.6642 10.10558,7.99286 3.70463,2.32866 7.67529,4.30649 11.64824,5.97275 4.92352,2.13126 10.11021,3.97374 15.43693,5.53105 5.32672,1.55731 10.79275,2.83017 16.27291,3.8617 12.86879,2.44239 26.11209,3.62136 38.71766,3.82682 0,0 10e-6,0 10e-6,0 7.99809,0.139 15.81054,-0.10586 23.19382,-0.67504 7.38327,-0.56919 14.33651,-1.46216 20.63929,-2.53792 5.20905,-0.86935 10.05067,-1.89416 14.34752,-2.98512 4.29686,-1.09096 8.04952,-2.24491 11.1286,-3.30058 3.07908,-1.05567 5.48631,-2.00839 7.12255,-2.68435 1.63624,-0.67595 2.50354,-1.07013 2.50354,-1.07013 -6.50303,-6.97694 -12.29244,-14.36326 -17.52372,-22.04209 0,0 -2.03412,0.60384 -5.79535,1.48321 -3.76122,0.87938 -9.2802,1.98099 -16.26218,3.06502 -5.29963,0.79981 -11.36639,1.53018 -17.99725,2.07546 -6.63086,0.54527 -13.82598,0.90467 -21.35682,1.05138 0,0 -10e-6,0 -10e-6,0 -11.38219,0.20852 -23.38666,-0.0897 -35.21056,-1.08182 -10.02583,-0.86151 -19.7396,-2.09213 -28.71505,-4.02328 -3.7045,-0.85953 -7.19775,-1.66542 -10.40313,-2.61231 -3.20538,-0.94688 -6.12288,-2.03639 -8.75249,-3.39465 0,0 -1e-5,0 -1e-5,0 -2.05964,-1.07508 -3.85934,-2.04814 -5.19788,-3.25803 -1.15331,-1.01098 -2.18059,-2.16829 -2.6954,-3.46574 -0.8449,-1.57776 -0.7392,-3.63066 -0.27922,-5.71109 0.45998,-2.08042 1.27896,-4.18636 2.12939,-6.05139 z"
           id="path3679"
           sodipodi:nodetypes="csss"
           inkscape:connector-curvature="0" />
        <path
           sodipodi:nodetypes="csss"
           id="path3683"
           d="m 172.14561,446.8273 c -1.92319,0.65571 -4.05663,1.72244 -5.98531,3.52885 -1.92867,1.80642 -3.6548,4.35659 -4.44546,8.00656 -0.45877,3.08105 -0.0237,6.42654 1.34785,9.43899 1.45271,3.24199 3.59448,6.19251 6.01445,8.5952 0,0 0,0 10e-6,10e-6 2.94241,2.97003 6.36045,5.63754 10.04956,7.95773 3.68912,2.32018 7.64777,4.29308 11.61305,5.9587 4.91245,2.12785 10.08898,3.96749 15.40675,5.52268 5.31777,1.55519 10.77607,2.82666 16.24989,3.85756 12.85305,2.44029 26.0821,3.6183 38.6756,3.82388 0,0 10e-6,0 10e-6,0 7.99052,0.13888 15.79489,-0.10563 23.16997,-0.67411 7.37507,-0.56848 14.31998,-1.46041 20.61477,-2.53495 5.20308,-0.86889 10.03743,-1.89221 14.32679,-2.98122 4.28936,-1.08902 8.0343,-2.24058 11.10652,-3.29399 3.07222,-1.0534 5.47346,-2.00399 7.10551,-2.67843 1.63205,-0.67443 2.49698,-1.06773 2.49698,-1.06773 -6.49478,-6.97999 -12.27659,-14.369 -17.50088,-22.05015 0,0 -2.02817,0.60178 -5.78068,1.47862 -3.75252,0.87684 -9.26022,1.97553 -16.23328,3.05886 -5.29205,0.79865 -11.3506,1.52798 -17.97321,2.07253 -6.62261,0.54456 -13.80946,0.90358 -21.33249,1.05041 0,0 -10e-6,0 -10e-6,0 -11.37024,0.20839 -23.36045,-0.0889 -35.1685,-1.07888 -10.01318,-0.86027 -19.70858,-2.08646 -28.66184,-4.01077 -3.69683,-0.85889 -7.17806,-1.65984 -10.36792,-2.59825 -3.18986,-0.9384 -6.08835,-2.01589 -8.69651,-3.35953 0,0 0,0 0,0 -2.03998,-1.06255 -3.81582,-2.00802 -5.12762,-3.17903 -1.12594,-0.97123 -2.13943,-2.07451 -2.65088,-3.30814 -0.85781,-1.50177 -0.76834,-3.50218 -0.32615,-5.54697 0.44218,-2.0448 1.2418,-4.13194 2.07303,-5.98843 z"
           style="fill:#204a87;fill-opacity:1;stroke:none"
           inkscape:path-effect="#path-effect3685"
           inkscape:original-d="m 334.93435,478.25444 c -17.4075,7.17301 -44.02809,11.75944 -73.86235,11.75944 -52.44139,0 -94.95352,-14.17072 -94.95352,-31.65118 0,-3.9815 2.20548,-7.79131 6.23141,-11.30107"
           inkscape:connector-curvature="0" />
        <path
           style="fill:#204a87;stroke:none"
           d="m 350.55553,558.96719 c 0,0 0.18321,0.12783 0.5716,0.30246 0.38839,0.17463 0.99498,0.39203 1.80594,0.46692 0.8031,0.0767 1.80321,0.0357 2.88933,-0.19092 0.99252,-0.20422 2.09436,-0.53152 3.26263,-0.99869 1.16828,-0.46717 2.40305,-1.07583 3.64874,-1.77731 2.52879,-1.4035 5.28833,-3.2665 8.11281,-5.46271 2.86933,-2.22685 5.86662,-4.82705 8.87897,-7.70245 6.10151,-5.82011 12.3856,-12.86917 18.09289,-20.48599 2.91287,-3.87531 5.70356,-7.93256 8.25752,-12.09096 2.55395,-4.15839 4.86993,-8.41825 6.87242,-12.6603 2.1782,-4.50271 3.98531,-9.16491 5.25859,-13.73266 1.27328,-4.56776 2.0132,-9.03759 2.28847,-13.06777 0.21623,-3.19482 0.0166,-6.22331 -0.41948,-8.80382 -0.26423,-1.56348 -0.64887,-3.20299 -1.17458,-4.89686 -1.28567,-4.1544 -3.68444,-8.45856 -7.27316,-12.25551 -3.58412,-3.6245 -7.88339,-6.19394 -12.36917,-7.57316 -5.32064,-1.5838 -10.42711,-1.80196 -14.97634,-1.24974 -6.41445,0.74481 -12.01577,2.59664 -16.75145,4.60714 -5.90739,2.49702 -10.60545,5.22745 -13.87574,7.26063 -3.27029,2.03318 -5.12257,3.36829 -5.12257,3.36829 0,0 2.15293,-0.25427 5.77688,-0.54435 3.62396,-0.29008 8.7219,-0.61211 14.49393,-0.42573 4.54552,0.15672 9.4351,0.58206 13.93503,1.83062 0,0 0,0 0,0 3.09353,0.89087 5.88741,2.00255 7.79794,3.55265 0,0 0,0 0,0 1.45964,1.18451 2.56934,2.49961 3.03152,3.74302 0.56023,1.18853 0.81603,2.72387 0.97107,4.275 0.20993,1.94493 -0.009,4.14963 -0.25204,6.39562 -0.28615,2.69745 -0.83242,5.21571 -1.32668,7.45513 -0.32356,1.46599 -0.68517,3.18907 -1.12134,5.1627 -0.43617,1.97363 -0.94756,4.19877 -1.53121,6.6477 -0.87504,3.50862 -1.94994,7.36439 -3.25076,11.42874 -1.30082,4.06434 -2.8267,8.33696 -4.52372,12.66108 -1.56819,3.97505 -3.26285,7.95947 -5.06536,11.82759 -1.80252,3.86812 -3.7135,7.61945 -5.67546,11.14262 -1.89487,3.40169 -3.81686,6.56379 -5.74569,9.38608 -1.89856,2.76819 -3.75502,5.18556 -5.5787,7.15505 -0.91578,0.97682 -1.79,1.8518 -2.64788,2.58235 -0.85788,0.73055 -1.69841,1.31786 -2.49988,1.77047 -0.86519,0.4886 -1.68629,0.80116 -2.40476,0.95043 -0.71743,0.14899 -1.32404,0.12673 -1.73334,0.0727 -0.4093,-0.0541 -0.62697,-0.12604 -0.62697,-0.12604 z"
           id="path3730"
           sodipodi:nodetypes="cc"
           inkscape:path-effect="#path-effect3732"
           inkscape:original-d="m 347.81572,449.50734 c 121.10723,-34.51766 22.81673,118.04287 3.01693,108.86218"
           inkscape:connector-curvature="0" />
        <path
           inkscape:original-d="m 352.60037,407.36315 c 0,3.78869 -2.07333,7.41596 -5.86243,10.76263 -13.04987,11.52613 -46.45136,19.7238 -85.59685,19.7238 -50.51158,0 -91.45929,-13.64924 -91.45929,-30.48643 0,-8.57364 10.61745,-16.32065 27.70861,-21.85982"
           inkscape:path-effect="#path-effect3764"
           sodipodi:nodetypes="csssc"
           id="path3762"
           d="m 196.96842,384.20127 c 0,0 -0.46681,0.0815 -1.40335,0.27212 -0.93654,0.19059 -2.34441,0.48716 -4.22095,0.97219 -1.87654,0.48503 -4.22527,1.15261 -7.00011,2.20768 -2.77483,1.05507 -5.98171,2.48914 -9.46072,4.73767 -2.30468,1.47973 -4.77718,3.46105 -6.94331,6.42458 -1.61819,2.21376 -2.8495,5.07737 -3.07922,8.54764 -0.0951,3.10959 0.65903,6.20929 2.18706,8.90174 1.63947,2.90836 3.83049,5.43817 6.24838,7.4986 2.8965,2.49826 6.16619,4.7244 9.70839,6.67501 3.5422,1.95061 7.35797,3.62441 11.26564,5.07989 0,10e-6 1e-5,10e-6 1e-5,10e-6 8.97368,3.4306 19.12284,6.09596 30.13698,7.97711 11.23932,1.93192 23.53412,3.11393 36.73387,3.31171 13.28805,0.21911 27.69736,-0.4698 42.91379,-3.08407 4.01321,-0.76813 7.92403,-1.73621 11.67667,-2.86305 3.57084,-0.99663 7.13818,-2.18493 10.53653,-3.57142 3.39835,-1.38648 6.62584,-2.9704 9.55875,-4.70192 2.93291,-1.73153 5.57034,-3.60961 7.8515,-5.54171 2.28116,-1.93211 4.20633,-3.91703 5.78239,-5.83654 0,0 1e-5,0 1e-5,0 1.52429,-1.72339 2.64844,-3.61062 3.38826,-5.34077 0.73983,-1.73014 1.10324,-3.30646 1.25335,-4.58508 0.15011,-1.27861 0.0953,-2.26518 0.0227,-2.92402 -0.0726,-0.65885 -0.15591,-0.99549 -0.15591,-0.99549 0,0 -0.10761,0.34928 -0.36306,0.95041 -0.25545,0.60113 -0.66642,1.44694 -1.33135,2.37451 -0.66493,0.92757 -1.59291,1.93073 -2.81141,2.88396 -1.2185,0.95322 -2.73513,1.85374 -4.37863,2.6819 0,0 -10e-6,0 -10e-6,0 -1.94075,0.94892 -4.10408,1.8255 -6.48337,2.58271 -2.37928,0.75721 -4.9756,1.39477 -7.7808,1.94101 -2.8052,0.54623 -5.82064,1.00229 -9.01822,1.46503 -3.19759,0.46274 -6.57871,0.93447 -10.07434,1.55438 -3.52017,0.53728 -7.12894,1.0925 -10.80363,1.69316 -13.68168,2.23638 -27.05437,3.10552 -39.7832,3.38735 -12.23581,0.25232 -23.77246,-0.14652 -34.5102,-1.15409 -10.28734,-0.97834 -19.73038,-2.43231 -28.22246,-4.61964 -1e-5,0 -1e-5,0 -1e-5,0 -3.67066,-0.98248 -7.12519,-1.98455 -10.2755,-3.17136 -3.15031,-1.18682 -5.99725,-2.55789 -8.5058,-4.20224 -1.98853,-1.31539 -3.70313,-2.64968 -4.88511,-4.18874 -1.0145,-1.3155 -1.75311,-2.76398 -1.92324,-4.17835 -0.26843,-1.56486 0.15496,-3.33811 0.87665,-4.94801 0,0 0,0 0,0 1.01875,-2.24245 2.69026,-4.1768 4.39783,-5.86891 2.52845,-2.49357 5.12391,-4.40086 7.46793,-5.94981 2.34401,-1.54894 4.44237,-2.73542 6.15063,-3.66602 1.70825,-0.93059 3.03132,-1.60257 3.91767,-2.05252 0.88635,-0.44995 1.33894,-0.67661 1.33894,-0.67661 z"
           style="fill:#204a87;fill-opacity:1;stroke:none"
           inkscape:connector-curvature="0" />
      </g>
      <text
         sodipodi:linespacing="125%"
         id="text2816"
         y="527.58636"
         x="556.13483"
         style="font-size:219.28601074px;font-style:normal;font-variant:normal;font-weight:normal;font-stretch:normal;line-height:125%;fill:#a40000;fill-opacity:1;stroke:none;font-family:Chevin;-inkscape-font-specification:'(el&amp;font BLOCK)'"
         xml:space="preserve"><tspan
           style="font-size:219.28601074px;font-style:normal;font-variant:normal;font-weight:bold;font-stretch:normal;text-align:start;line-height:125%;writing-mode:lr-tb;text-anchor:start;fill:#a40000;font-family:Gill Sans Display MT Std;-inkscape-font-specification:Gill Sans Display MT Std Bold"
           y="527.58636"
           x="556.13483"
           id="tspan2818"
           sodipodi:role="line">Buzzlang</tspan></text>
      <text
         xml:space="preserve"
         style="font-size:40.46808243px;font-style:normal;font-variant:normal;font-weight:normal;font-stretch:normal;line-height:125%;fill:#a40000;fill-opacity:1;stroke:none;font-family:Chevin;-inkscape-font-specification:'(el&amp;font BLOCK)'"
         x="1361.7708"
         y="442.0722"
         id="text4101"
         sodipodi:linespacing="125%"><tspan
           sodipodi:role="line"
           id="tspan4103"
           x="1361.7708"
           y="442.0722"
           style="font-size:40.46808243px;font-style:normal;font-variant:normal;font-weight:bold;font-stretch:normal;text-align:start;line-height:125%;writing-mode:lr-tb;text-anchor:start;fill:#a40000;font-family:Gill Sans Display MT Std;-inkscape-font-specification:Gill Sans Display MT Std Bold">™</tspan></text>
      <g
         id="g3039"
         transform="translate(21.995291,-59.004879)">
        <text
           sodipodi:linespacing="125%"
           id="text3977"
           y="764.68689"
           x="269.29855"
           style="font-size:68.55926514px;font-style:normal;font-variant:normal;font-weight:normal;font-stretch:normal;line-height:125%;fill:#555753;fill-opacity:1;stroke:none;font-family:Chevin;-inkscape-font-specification:'(el&amp;font BLOCK)'"
           xml:space="preserve"><tspan
             style="font-size:68.55926514px;font-style:normal;font-variant:normal;font-weight:bold;font-stretch:normal;text-align:start;line-height:125%;writing-mode:lr-tb;text-anchor:start;fill:#555753;font-family:Gill Sans Display MT Std;-inkscape-font-specification:Gill Sans Display MT Std Bold"
             y="764.68689"
             x="269.29855"
             id="tspan3979"
             sodipodi:role="line">Write Once, Synergise Everywhere.</tspan></text>
        <text
           sodipodi:linespacing="125%"
           id="text4101-7"
           y="731.45575"
           x="1203.5326"
           style="font-size:23.32115746px;font-style:normal;font-variant:normal;font-weight:normal;font-stretch:normal;line-height:125%;fill:#555753;fill-opacity:1;stroke:none;font-family:Chevin;-inkscape-font-specification:'(el&amp;font BLOCK)'"
           xml:space="preserve"><tspan
             style="font-size:23.32115746px;font-style:normal;font-variant:normal;font-weight:bold;font-stretch:normal;text-align:start;line-height:125%;writing-mode:lr-tb;text-anchor:start;fill:#555753;font-family:Gill Sans Display MT Std;-inkscape-font-specification:Gill Sans Display MT Std Bold"
             y="731.45575"
             x="1203.5326"
             id="tspan4103-3"
             sodipodi:role="line">™</tspan></text>
      </g>
    </g>
  </g>
</svg>
